<?xml version="1.0" encoding="utf-8"?>
<svg viewBox="0 0 500 500" xmlns="http://www.w3.org/2000/svg">
  <path d="M 248.679 135.557 C 185.079 135.557 133.779 186.857 133.779 250.457 C 133.779 314.057 185.079 365.357 248.679 365.357 C 312.279 365.357 363.579 314.057 363.579 250.457 C 363.579 186.857 312.279 135.557 248.679 135.557 Z M 248.679 325.157 C 207.579 325.157 173.979 291.657 173.979 250.457 C 173.979 209.257 207.479 175.757 248.679 175.757 C 289.879 175.757 323.379 209.257 323.379 250.457 C 323.379 291.657 289.779 325.157 248.679 325.157 Z M 395.079 130.857 C 395.079 145.757 383.079 157.657 368.279 157.657 C 353.379 157.657 341.479 145.657 341.479 130.857 C 341.479 116.057 353.479 104.057 368.279 104.057 C 383.079 104.057 395.079 116.057 395.079 130.857 Z M 471.179 158.057 C 469.479 122.157 461.279 90.357 434.979 64.157 C 408.779 37.957 376.979 29.757 341.079 27.957 C 304.079 25.857 193.179 25.857 156.179 27.957 C 120.379 29.657 88.579 37.857 62.279 64.057 C 35.979 90.257 27.879 122.057 26.079 157.957 C 23.979 194.957 23.979 305.857 26.079 342.857 C 27.779 378.757 35.979 410.557 62.279 436.757 C 88.579 462.957 120.279 471.157 156.179 472.957 C 193.179 475.057 304.079 475.057 341.079 472.957 C 376.979 471.257 408.779 463.057 434.979 436.757 C 461.179 410.557 469.379 378.757 471.179 342.857 C 473.279 305.857 473.279 195.057 471.179 158.057 Z M 423.379 382.557 C 415.579 402.157 400.479 417.257 380.779 425.157 C 351.279 436.857 281.279 434.157 248.679 434.157 C 216.079 434.157 145.979 436.757 116.579 425.157 C 96.979 417.357 81.879 402.257 73.979 382.557 C 62.279 353.057 64.979 283.057 64.979 250.457 C 64.979 217.857 62.379 147.757 73.979 118.357 C 81.779 98.757 96.879 83.657 116.579 75.757 C 146.079 64.057 216.079 66.757 248.679 66.757 C 281.279 66.757 351.379 64.157 380.779 75.757 C 400.379 83.557 415.479 98.657 423.379 118.357 C 435.079 147.857 432.379 217.857 432.379 250.457 C 432.379 283.057 435.079 353.157 423.379 382.557 Z" style="fill: rgba(255, 255, 255, 0.8);"/>
</svg>