<?xml version="1.0" encoding="utf-8"?>
<svg viewBox="0 0 500 500" xmlns="http://www.w3.org/2000/svg">
  <path d="M 433.778 73.909 L 65.31 73.909 C 41.829 73.909 22.794 93.252 22.794 117.111 L 22.794 376.318 C 22.794 400.177 41.829 419.519 65.31 419.519 L 433.778 419.519 C 457.259 419.519 476.294 400.177 476.294 376.318 L 476.294 117.111 C 476.294 93.252 457.259 73.909 433.778 73.909 Z M 433.778 117.111 L 433.778 153.836 C 413.917 170.27 382.256 195.824 314.569 249.68 C 299.651 261.602 270.104 290.245 249.543 289.912 C 228.987 290.249 199.429 261.598 184.519 249.68 C 116.842 195.832 85.172 170.272 65.31 153.836 L 65.31 117.111 L 433.778 117.111 Z M 65.31 376.318 L 65.31 209.271 C 85.606 225.698 114.388 248.748 158.257 283.655 C 177.618 299.139 211.521 333.324 249.543 333.115 C 287.38 333.324 320.854 299.635 340.822 283.662 C 384.69 248.757 413.481 225.7 433.778 209.272 L 433.778 376.318 L 65.31 376.318 Z" style="fill: rgba(255, 255, 255, 0.8);"/>
</svg>