<?xml version="1.0" encoding="utf-8"?>
<svg viewBox="0 0 500 500" xmlns="http://www.w3.org/2000/svg">
  <path d="M 485.863 248.797 C 485.863 377.97 380.386 482.629 250.203 482.629 C 225.877 482.629 202.501 478.952 180.455 472.163 C 190.053 456.606 204.401 431.148 209.723 410.877 C 212.573 399.939 224.356 355.247 224.356 355.247 C 232.053 369.767 254.479 382.119 278.33 382.119 C 349.408 382.119 400.626 317.25 400.626 236.634 C 400.626 159.413 337.055 101.615 255.334 101.615 C 153.658 101.615 99.59 169.313 99.59 243.14 C 99.59 277.46 118.024 320.172 147.387 333.75 C 151.853 335.824 154.229 334.881 155.274 330.638 C 156.034 327.433 160.025 311.498 161.83 304.144 C 162.401 301.787 162.116 299.712 160.215 297.449 C 150.618 285.663 142.826 264.166 142.826 244.083 C 142.826 192.508 182.166 142.63 249.253 142.63 C 307.122 142.63 347.698 181.759 347.698 237.766 C 347.698 301.032 315.485 344.876 273.579 344.876 C 250.488 344.876 233.099 325.924 238.705 302.635 C 245.357 274.82 258.185 244.837 258.185 224.754 C 258.185 206.839 248.493 191.848 228.347 191.848 C 204.686 191.848 185.682 216.08 185.682 248.609 C 185.682 269.352 192.713 283.306 192.713 283.306 C 192.713 283.306 169.432 381.176 165.156 399.468 C 160.405 419.645 162.306 448.12 164.301 466.6 C 76.689 432.563 14.543 347.893 14.543 248.797 C 14.543 119.624 120.02 14.965 250.203 14.965 C 380.386 14.965 485.863 119.624 485.863 248.797 Z" style="fill: rgba(255, 255, 255, 0.8);"/>
</svg>